<svg width="23" height="21" viewBox="0 0 23 21" fill="none" xmlns="http://www.w3.org/2000/svg">
<path d="M17.25 0C19.8302 2.08377e-07 21.9219 2.09167 21.9219 4.67188C21.9219 6.75799 20.5543 8.52387 18.667 9.12402C21.1477 9.68685 23 11.9037 23 14.5547C23 17.6311 20.5061 20.125 17.4297 20.125H15.2734C18.3498 20.125 20.8438 17.6311 20.8438 14.5547C20.8438 11.9037 18.9915 9.68685 16.5107 9.12402C18.3981 8.52387 19.7656 6.75799 19.7656 4.67188C19.7656 2.09167 17.674 2.08377e-07 15.0938 0H17.25Z" fill="#D2CFC8"/>
<path d="M10.7812 0C13.3615 2.08377e-07 15.4531 2.09167 15.4531 4.67188C15.4531 6.75799 14.0856 8.52387 12.1982 9.12402C14.679 9.68685 16.5312 11.9037 16.5312 14.5547C16.5312 17.6311 14.0373 20.125 10.9609 20.125H0V0H10.7812ZM6.10938 4.3125V6.82812H3.59375V7.90625H6.10938V13.6562H7.1875V7.90625H9.70312V6.82812H7.1875V4.3125H6.10938Z" fill="#D2CFC8"/>
</svg>
